<svg width="18" height="18" viewBox="0 0 18 18" fill="none" xmlns="http://www.w3.org/2000/svg">
<path d="M0.1875 3.85938C0.1875 2.88553 0.574357 1.95158 1.26297 1.26297C1.95158 0.574357 2.88553 0.1875 3.85938 0.1875H14.1406C15.1145 0.1875 16.0484 0.574357 16.737 1.26297C17.4256 1.95158 17.8125 2.88553 17.8125 3.85938V14.1406C17.8125 15.1145 17.4256 16.0484 16.737 16.737C16.0484 17.4256 15.1145 17.8125 14.1406 17.8125H3.85938C2.88553 17.8125 1.95158 17.4256 1.26297 16.737C0.574357 16.0484 0.1875 15.1145 0.1875 14.1406V3.85938ZM9.73438 12.6719C9.73438 12.8666 9.81175 13.0534 9.94947 13.1912C10.0872 13.3289 10.274 13.4062 10.4688 13.4062H13.7734C13.9682 13.4062 14.155 13.3289 14.2927 13.1912C14.4304 13.0534 14.5078 12.8666 14.5078 12.6719C14.5078 12.4771 14.4304 12.2903 14.2927 12.1526C14.155 12.0149 13.9682 11.9375 13.7734 11.9375H10.4688C10.274 11.9375 10.0872 12.0149 9.94947 12.1526C9.81175 12.2903 9.73438 12.4771 9.73438 12.6719ZM10.4688 6.0625C10.274 6.0625 10.0872 6.13987 9.94947 6.27759C9.81175 6.41532 9.73438 6.60211 9.73438 6.79688C9.73438 6.99164 9.81175 7.17843 9.94947 7.31616C10.0872 7.45388 10.274 7.53125 10.4688 7.53125H13.7734C13.9682 7.53125 14.155 7.45388 14.2927 7.31616C14.4304 7.17843 14.5078 6.99164 14.5078 6.79688C14.5078 6.60211 14.4304 6.41532 14.2927 6.27759C14.155 6.13987 13.9682 6.0625 13.7734 6.0625H10.4688ZM8.05119 10.6832C7.98297 10.6148 7.90193 10.5605 7.81271 10.5235C7.72349 10.4865 7.62785 10.4674 7.53125 10.4674C7.43465 10.4674 7.33901 10.4865 7.24979 10.5235C7.16057 10.5605 7.07953 10.6148 7.01131 10.6832L5.32812 12.3678L4.74944 11.7877C4.61174 11.6498 4.4249 11.5722 4.23002 11.5721C4.03514 11.572 3.84819 11.6493 3.7103 11.787C3.5724 11.9247 3.49485 12.1115 3.49472 12.3064C3.49458 12.5012 3.57186 12.6882 3.70956 12.8261L4.80819 13.9262C4.8764 13.9946 4.95744 14.0488 5.04666 14.0859C5.13588 14.1229 5.23153 14.1419 5.32812 14.1419C5.42472 14.1419 5.52037 14.1229 5.60959 14.0859C5.69881 14.0488 5.77985 13.9946 5.84806 13.9262L8.05119 11.7231C8.11958 11.6548 8.17384 11.5738 8.21086 11.4846C8.24788 11.3954 8.26694 11.2997 8.26694 11.2031C8.26694 11.1065 8.24788 11.0109 8.21086 10.9217C8.17384 10.8324 8.11958 10.7514 8.05119 10.6832ZM8.05119 5.84806C8.11947 5.77978 8.17363 5.69872 8.21058 5.60951C8.24753 5.5203 8.26655 5.42469 8.26655 5.32812C8.26655 5.23156 8.24753 5.13595 8.21058 5.04674C8.17363 4.95753 8.11947 4.87647 8.05119 4.80819C7.98291 4.73991 7.90185 4.68575 7.81264 4.64879C7.72343 4.61184 7.62781 4.59282 7.53125 4.59282C7.43469 4.59282 7.33907 4.61184 7.24986 4.64879C7.16065 4.68575 7.07959 4.73991 7.01131 4.80819L5.32812 6.49284L4.74944 5.91269C4.61154 5.77479 4.42451 5.69732 4.2295 5.69732C4.03449 5.69732 3.84746 5.77479 3.70956 5.91269C3.57167 6.05058 3.4942 6.23761 3.4942 6.43262C3.4942 6.62764 3.57167 6.81467 3.70956 6.95256L4.80819 8.05119C4.8764 8.11958 4.95744 8.17384 5.04666 8.21086C5.13588 8.24788 5.23153 8.26694 5.32812 8.26694C5.42472 8.26694 5.52037 8.24788 5.60959 8.21086C5.69881 8.17384 5.77985 8.11958 5.84806 8.05119L8.05119 5.84806Z" fill="#EB7303"/>
</svg>
